# WaveFront *.obj file (generated by CINEMA 4D)

mtllib ./star.mtl

v -1.86670088768005 0.60708171129227 -0.00526026822627
v -0.58601135015488 0.79945266246796 -0.00480211805552
v -0.00886873342097 0.01209896896034 -0.53925395011902
v -0.01710821501911 1.9628621339798 -0.00526026822627
v -0.58601135015488 0.79945266246796 0.00480211805552
v -0.00886873342097 0.01209896896034 0.53925395011902
v -1.86670088768005 0.60708171129227 0.00526026822627
v -0.01710821501911 1.9628621339798 0.00526026822627
v -0.94141215085983 -0.31028544902802 -0.00480211805552
v -0.01424739230424 -0.00469587976113 -0.53925395011902
v -1.87207961082458 0.5902869105339 -0.00526026822627
v -1.87207961082458 0.5902869105339 0.00526026822627
v -1.15421140193939 -1.58773946762085 -0.00526026822627
v -0.94141215085983 -0.31028544902802 0.00480211805552
v -0.01424739230424 -0.00469587976113 0.53925395011902
v -1.15421140193939 -1.58773946762085 0.00526026822627
v 0.00006336082151 -0.01500118244439 -0.53925395011902
v -1.1399005651474 -1.59804487228394 -0.00526026822627
v 0.00418663630262 -0.99121963977814 -0.00480211805552
v -1.1399005651474 -1.59804487228394 0.00526026822627
v 1.1533590555191 -1.58835875988007 -0.00526026822627
v 1.1533590555191 -1.58835875988007 0.00526026822627
v 0.00418663630262 -0.99121963977814 0.00480211805552
v 0.00006336082151 -0.01500118244439 0.53925395011902
v 0.94399964809418 -0.3023219704628 -0.00480211805552
v 0.01428655162454 -0.00457536056638 -0.53925395011902
v 1.16758227348328 -1.57793295383453 -0.00526026822627
v 1.16758227348328 -1.57793295383453 0.00526026822627
v 0.00876621343195 0.01217345427722 0.53925395011902
v 0.00052673235768 1.96293663978577 0.00526026822627
v 0.57923722267151 0.80437439680099 0.00480211805552
v 1.8615061044693 0.62282866239548 0.00526026822627
v 1.86702644824982 0.60607981681824 0.00526026822627
v 0.94399964809418 -0.3023219704628 0.00480211805552
v 0.01428655162454 -0.00457536056638 0.53925395011902
v 1.86702644824982 0.60607981681824 -0.00526026822627
v 0.00052673235768 1.96293663978577 -0.00526026822627
v 0.57923722267151 0.80437439680099 -0.00480211805552
v 0.00876621343195 0.01217345427722 -0.53925395011902
v 1.8615061044693 0.62282866239548 -0.00526026822627
v -1.87916672229767 0.60181528329849 -0
v -0.00831780582666 1.96930718421936 -0.00464838277549
v -0.00833410024643 1.97316491603851 -0
v -0.94411480426788 -0.31117621064186 0
v -1.15305483341217 -1.60122263431549 0
v 1.16653966903687 -1.59142529964447 0
v 1.87401592731476 0.61766767501831 -0
v -0.58769369125366 0.80174779891968 0
v -1.87102544307709 0.60775738954544 0
v -1.875492811203 0.60063868761063 0.00464838277549
v -1.87599205970764 0.5922492146492 -0
v -1.875492811203 0.60063868761063 -0.00464838277549
v -0.00762617820874 0.00244233291596 -0.54204779863358
v -0.00467941537499 -0.00649820407853 -0.54204779863358
v 0.0047341408208 -0.00645844405517 -0.54204779863358
v 0.00760527513921 0.00250666635111 -0.54204779863358
v -0.0000338220816 0.00800764933228 -0.54204779863358
v -0.000167059261 1.96725833415985 -0
v -0.00831780582666 1.96930718421936 0.00464838277549
v -0.01645095460117 1.96718955039978 0
v -0.0000338220816 0.00800764933228 0.54204779863358
v 0.00760527513921 0.00250666635111 0.54204779863358
v 0.0047341408208 -0.00645844405517 0.54204779863358
v -0.00467941537499 -0.00649820407853 0.54204779863358
v -0.00762617820874 0.00244233291596 0.54204779863358
v -1.15619027614594 -1.59164357185364 -0
v -1.15080046653748 -1.5980920791626 0.00464838277549
v -1.14297592639923 -1.60115945339203 0
v -1.15080046653748 -1.5980920791626 -0.00464838277549
v 0.00419865548611 -0.994065284729 0
v 1.15646064281464 -1.59144723415375 -0
v 1.16425895690918 -1.58831393718719 0.00464838277549
v 1.16959416866302 -1.58182013034821 0
v 1.16425895690918 -1.58831393718719 -0.00464838277549
v 0.94670969247818 -0.3031899034977 0
v 0.5809001326561 0.80668359994888 0
v 1.86582481861114 0.62354081869125 0
v 1.87035202980042 0.61646008491516 -0.00464838277549
v 1.87092220783234 0.60807514190674 -0
v 1.87035202980042 0.61646008491516 0.00464838277549
# 80 vertices

vn -0.24281316995621 -0.46663257479668 0.85046797990799
vn 0 0 0
vn -0.3655786216259 -0.37822809815407 0.85046797990799
vn -0.47268632054329 0.23080703616142 0.85046797990799
vn 0.36876055598259 -0.37512642145157 0.85046797990799
vn -0.51882737874985 0.08673167228699 0.85046797990799
vn 0.24674634635448 -0.46456483006477 0.85046797990799
vn 0.07344242930412 0.52087473869324 0.85046797990799
vn -0.07783979177475 0.5202357172966 0.85046797990799
vn 0.51807624101639 0.09111123532057 0.85046797990799
vn 0.47071972489357 0.2347916662693 0.85046797990799
vn -0.24281316995621 -0.46663257479668 -0.85046797990799
vn -0.3655786216259 -0.37822809815407 -0.85046797990799
vn -0.47268632054329 0.23080703616142 -0.85046797990799
vn 0.36876055598259 -0.37512642145157 -0.85046797990799
vn -0.51882737874985 0.08673167228699 -0.85046797990799
vn 0.24674634635448 -0.46456483006477 -0.85046797990799
vn 0.07344242930412 0.52087473869324 -0.85046797990799
vn -0.07783979177475 0.5202357172966 -0.85046797990799
vn 0.51807624101639 0.09111123532057 -0.85046797990799
vn 0.47071972489357 0.2347916662693 -0.85046797990799
vn -0.43059325218201 -0.82946848869324 -0.35576894879341
vn 0.27666658163071 -0.12091380357742 0.95332860946655
vn -0.65009570121765 -0.67128491401672 -0.35602271556854
vn -0.29489812254906 -0.06479766219854 0.95332908630371
vn -0.83940464258194 0.41088038682938 0.35577675700188
vn 0.15039849281311 0.26172786951065 0.95335137844086
vn 0.6558091044426 -0.66583663225174 -0.35577517747879
vn 0.29539415240288 -0.06215866282582 0.95335125923157
vn -0.02950176410377 -0.3004897236824 0.9533286690712
vn -0.92193049192429 0.15319842100143 -0.35577297210693
vn 0.43753987550735 -0.82571709156036 -0.35601982474327
vn 0.13138012588024 0.92529028654099 0.35577681660652
vn -0.13919116556644 0.92414432764053 -0.35578522086143
vn 0.92050939798355 0.16096425056458 -0.35602390766144
vn 0.83582204580307 0.41791558265686 0.35601690411568
vn 0.03203976526856 -0.30022931098938 -0.95332878828049
vn -0.20239096879959 0.22405986487865 -0.95332843065262
vn 0.15055204927921 0.261723279953 -0.95332837104797
vn 0.29543700814247 -0.06230522692204 -0.95332837104797
vn -0.2756350338459 -0.12324732542038 -0.95332860946655
vn -0.51042193174362 0.67092907428741 0.53788805007935
vn -0.14979481697083 -0.04937173426151 -0.98748362064362
vn 0 0 -1
vn 0.18202595412731 0.25277554988861 -0.95024788379669
vn -0.18415473401546 0.25122892856598 -0.95024788379669
vn 0.00131564785261 -0.31149187684059 -0.95024788379669
vn 0.29665300250053 -0.09500502794981 -0.95024788379669
vn 0.48035979270935 0.69276905059814 -0.53788989782333
vn 0 0 1
vn 0.29665297269821 -0.09500501304865 0.95024788379669
vn 0.00066616182448 -0.15772001445293 0.98748362064362
vn -0.29583984613419 -0.09750755876303 0.95024788379669
vn 0.18202595412731 0.25277554988861 0.95024788379669
vn -0.18415473401546 0.25122892856598 0.95024788379669
vn -0.79582017660141 -0.27811369299889 0.53788757324219
vn 0.01858027465641 -0.842813372612 0.53788512945175
vn 0.50474017858505 0.67521059513092 -0.53789216279984
vn -0.80522507429123 -0.24958427250385 0.53788501024246
vn -0.80522507429123 -0.24958427250385 -0.53788501024246
vn -0.51042193174362 0.67092907428741 -0.53788805007935
vn 0.48035979270935 0.69276905059814 0.53788989782333
vn -0.48619517683983 0.68868583440781 0.53789043426514
vn -0.48619517683983 0.68868583440781 -0.53789043426514
vn -0.01146317459643 -0.84293735027313 0.53788965940475
vn -0.01146317459643 -0.84293735027313 -0.53788965940475
vn -0.79582017660141 -0.27811369299889 -0.53788757324219
vn 0.79813730716705 -0.27138337492943 0.53789210319519
vn 0.79813730716705 -0.27138337492943 -0.53789210319519
vn 0.01858027465641 -0.842813372612 -0.53788512945175
vn 0.80730241537094 -0.24276931583881 -0.53789019584656
vn 0.80730241537094 -0.24276931583881 0.53789019584656
vn 0.50474017858505 0.67521059513092 0.53789216279984
vn -0.43055012822151 -0.82938551902771 0.35601446032524
vn 0.03216398879886 -0.30014431476593 0.95335137844086
vn -0.65016049146652 -0.6713519692421 0.35577777028084
vn -0.20244146883488 0.22391992807388 0.95335060358047
vn -0.83932065963745 0.41083931922913 -0.35602226853371
vn -0.15275490283966 0.26044228672981 0.95332878828049
vn 0.6557445526123 -0.66577106714249 0.35601687431335
vn 0.20049187541008 0.22575815021992 0.95332902669907
vn -0.27551451325417 -0.12334031611681 0.9533514380455
vn -0.92183899879456 0.15318314731121 0.35601654648781
vn 0.43758362531662 -0.82579952478409 0.35577484965324
vn 0.13136719167233 0.92519879341125 -0.35601940751076
vn -0.13917751610279 0.92405331134796 0.35602685809135
vn 0.92060059309006 0.1609802544117 0.35578069090843
vn 0.83590197563171 0.41795542836189 -0.35578244924545
vn 0.27654659748077 -0.12100823223591 -0.9533514380455
vn -0.29485848546028 -0.06465532630682 -0.95335102081299
vn -0.15260572731495 0.26044797897339 -0.95335114002228
vn 0.20054292678833 0.22561809420586 -0.9533514380455
vn -0.02962790988386 -0.30040562152863 -0.95335125923157
# 93 normals

vt 0.58304411172867 0.00875508785248 0
vt 0.34480798244476 0.25219285488129 0
vt 0.42410683631897 0.49624967575073 0
vt 0.16476558148861 0.5 0
vt 0.00686141941696 0.80180251598358 0
vt 0.42138206958771 0.5 0
vt 0.34480798244476 0.74780714511871 0
vt 0.58304411172867 0.99124497175217 0
vt 0.42410683631897 0.50375032424927 0
vt 0.94126492738724 0.4981963634491 0
vt 0.63612270355225 0.34684681892395 0
vt 0.42851561307907 0.49768221378326 0
vt 0.00686141941696 0.19819760322571 0
vt 0.00898171402514 0.19527924060822 0
vt 0.63612270355225 0.65315324068069 0
vt 0.94126492738724 0.5018036365509 0
vt 0.42851561307907 0.50231784582138 0
vt 0.00898171402514 0.80472081899643 0
vt 0.58647483587265 0.00986969470978 0
vt 0.58647483587265 0.99013030529022 0
vt 0.17301186919212 0.62707602977753 0
vt 0.58415853977203 0.00919473171234 0
vt 0.58475947380066 0.00931239128113 0
vt 0.42631122469902 0.49696600437164 0
vt 0.00620225677267 0.89676594734192 0
vt 0.1647489964962 0.49980509281158 0
vt 0.06327427178621 0.88269108533859 0
vt 0.20994013547897 0.7481769323349 0
vt 0.34331545233726 0.74870872497559 0
vt 0.53916227817535 0.70775973796844 0
vt 0.72842937707901 0.62615895271301 0
vt 0.590560734272 0.9914578795433 0
vt 0.31806135177612 0.67457628250122 0
vt 0.94255346059799 0.50252890586853 0
vt 0.42851561307907 0.50000005960464 0
vt 0.94126492738724 0.5 0
vt 0.00792156718671 0.19673848152161 0
vt 0.42274445295334 0.49812483787537 0
vt 0.16280800104141 0.50082558393478 0
vt 0.28811594843864 0.4768807888031 0
vt 0.16819363832474 0.5607116818428 0
vt 0.17162297666073 0.62524843215942 0
vt 0.63796174526215 0.65454334020615 0
vt 0.46643659472466 0.73200696706772 0
vt 0.34525644779205 0.74807804822922 0
vt 0.05172990262508 0.72129946947098 0
vt 0.29755288362503 0.50245320796967 0
vt 0.63816058635712 0.34649729728699 0
vt 0.32692432403564 0.85976719856262 0
vt 0.31855881214142 0.82761669158936 0
vt 0.50282049179077 0.57381224632263 0
vt 0.42368257045746 0.49980390071869 0
vt 0.06608737260103 0.88457477092743 0
vt 0.21355521678925 0.75059765577316 0
vt 0.58475947380066 0.99068766832352 0
vt 0.42631122469902 0.50303411483765 0
vt 0.45148420333862 0.30201971530914 0
vt 0.42676973342896 0.49687528610229 0
vt 0.00433252612129 0.19948613643646 0
vt 0.21184994280338 0.74840492010117 0
vt 0 1 0
vt 1 1 0
vt 1 0 0
vt 0 0 0
vt 0.33531913161278 0.68709874153137 0
vt 0.66522639989853 0.68563562631607 0
vt 0.23204693198204 0.35809576511383 0
vt 0.76584810018539 0.35572838783264 0
vt 0.4981284737587 0.1532975435257 0
vt 0.42502382397652 0.49606823921204 0
vt 0.00231782626361 0.99680978059769 0
vt 1.0283430814743 0.75 0
vt 0.00121574488003 1.00195920467377 0
vt 0.58527290821075 0.00963425636292 0
vt 0.00554309366271 0.9917294383049 0
vt 0.16473239660263 0.49961030483246 0
vt 0.1196871176362 0.96357971429825 0
vt -0.00150180200581 0.9963538646698 0
vt 0.34182295203209 0.74961024522781 0
vt 0.49528047442436 0.42427444458008 0
vt 0.59464663267136 0.99278545379639 0
vt 0.00000000573851 1.00230574607849 0
vt 0.94384199380875 0.50686144828796 0
vt 0.16085042059422 0.50165110826492 0
vt 0.56937044858932 0.7555638551712 0
vt 0.32740554213524 0.92614412307739 0
vt -0.00156203028746 0.99830400943756 0
vt 0.63980084657669 0.65593349933624 0
vt -0.00839171651751 0.96221023797989 0
vt 0.34570488333702 0.74834895133972 0
vt 0.09447809308767 0.63787811994553 0
vt 0.00863094907254 0.99503666162491 0
vt 0.64019846916199 0.34614777565002 0
vt 0.06737384200096 0.72940415143967 0
vt 0.00099493307061 1.00208008289337 0
vt 0.42259681224823 1.13886940479279 0
vt 0.42325830459595 0.50335812568665 0
vt 0.12319302558899 0.96442878246307 0
vt 0.00300360890105 0.99744498729706 0
vt -0.03829654306173 0.1058429479599 0
vt 0.00180363282561 0.20077466964722 0
# 101 texture coordinates

o 一体化
usemtl default
f 24/3/1 23/2/1 22/1/1
f 15/6/3 12/5/3 14/4/3
f 6/9/4 8/8/4 5/7/4
f 35/12/5 34/11/5 33/10/5
f 16/13/6 15/6/6 14/4/6
f 20/14/7 23/2/7 24/3/7
f 29/17/8 32/16/8 31/15/8
f 7/18/9 6/9/9 5/7/9
f 35/12/10 28/19/10 34/11/10
f 31/15/11 30/20/11 29/17/11
f 19/2/12 17/3/12 21/1/12
f 11/5/13 10/6/13 9/4/13
f 4/8/14 3/9/14 2/7/14
f 25/11/15 26/12/15 36/10/15
f 10/6/16 13/13/16 9/4/16
f 19/2/17 18/14/17 17/3/17
f 40/16/18 39/17/18 38/15/18
f 3/9/19 1/18/19 2/7/19
f 27/19/20 26/12/20 25/11/20
f 37/20/21 38/15/21 39/17/21
f 21/1/22 71/22/22 70/21/22 19/2/22
f 35/12/23 63/24/23 72/23/23 28/19/23
f 9/4/24 44/26/24 51/25/24 11/5/24
f 15/6/25 65/28/25 50/27/25 12/5/25
f 8/8/26 60/30/26 48/29/26 5/7/26
f 30/20/27 59/32/27 61/31/27 29/17/27
f 36/10/28 79/34/28 75/33/28 25/11/28
f 33/10/29 80/36/29 62/35/29 35/12/29
f 24/3/30 64/38/30 67/37/30 20/14/30
f 13/13/31 66/40/31 44/39/31 9/4/31
f 19/2/32 70/42/32 68/41/32 18/14/32
f 32/16/33 77/44/33 76/43/33 31/15/33
f 1/18/34 49/46/34 48/45/34 2/7/34
f 25/11/35 75/48/35 73/47/35 27/19/35
f 31/15/36 76/50/36 58/49/36 30/20/36
f 17/3/37 55/52/37 74/51/37 21/1/37
f 3/9/38 53/54/38 52/53/38 1/18/38
f 39/17/39 57/56/39 42/55/39 37/20/39
f 26/12/40 56/58/40 78/57/40 36/10/40
f 10/6/41 54/60/41 69/59/41 13/13/41
f 50/64/42 7/63/42 49/62/42 41/61/42
f 57/69/2 39/70/45 56/68/45 26/12/48 55/66/48 17/71/47 54/65/47 10/6/43 53/67/43 3/9/46
f 58/64/49 37/63/49 42/62/49 43/61/49
f 65/67/2 15/6/53 64/65/53 24/3/52 63/66/52 35/12/51 62/68/51 29/17/54 61/69/54 6/72/55
f 67/64/56 16/63/56 66/62/56 45/61/56
f 72/64/57 22/63/57 71/62/57 46/61/57
f 78/64/58 40/63/58 77/62/58 47/61/58
f 51/64/59 12/63/59 50/62/59 41/61/59
f 52/64/60 11/63/60 51/62/60 41/61/60
f 49/64/61 1/63/61 52/62/61 41/61/61
f 59/64/62 30/63/62 58/62/62 43/61/62
f 60/64/63 8/63/63 59/62/63 43/61/63
f 42/64/64 4/63/64 60/62/64 43/61/64
f 68/64/65 20/63/65 67/62/65 45/61/65
f 69/64/66 18/63/66 68/62/66 45/61/66
f 66/64/67 13/63/67 69/62/67 45/61/67
f 73/64/68 28/63/68 72/62/68 46/61/68
f 74/64/69 27/63/69 73/62/69 46/61/69
f 71/64/70 21/63/70 74/62/70 46/61/70
f 79/64/71 36/63/71 78/62/71 47/61/71
f 80/64/72 33/63/72 79/62/72 47/61/72
f 77/64/73 32/63/73 80/62/73 47/61/73
f 71/22/74 22/74/74 23/73/74 70/21/74
f 63/24/75 24/3/75 22/1/75 72/23/75
f 44/26/76 14/76/76 12/75/76 51/25/76
f 65/28/77 6/78/77 7/77/77 50/27/77
f 60/30/78 4/80/78 2/79/78 48/29/78
f 59/32/79 8/81/79 6/72/79 61/31/79
f 79/34/80 33/83/80 34/82/80 75/33/80
f 80/36/81 32/16/81 29/17/81 62/35/81
f 64/38/82 15/6/82 16/13/82 67/37/82
f 66/40/83 16/85/83 14/84/83 44/39/83
f 70/42/84 23/87/84 20/86/84 68/41/84
f 77/44/85 40/89/85 38/88/85 76/43/85
f 49/46/86 7/91/86 5/90/86 48/45/86
f 75/48/87 34/93/87 28/92/87 73/47/87
f 76/50/88 38/95/88 37/94/88 58/49/88
f 55/52/89 26/97/89 27/96/89 74/51/89
f 53/54/90 10/99/90 11/98/90 52/53/90
f 57/56/91 3/9/91 4/8/91 42/55/91
f 56/58/92 39/70/92 40/100/92 78/57/92
f 54/60/93 17/71/93 18/101/93 69/59/93

